<?xml version="1.0" standalone="no"?>
<!DOCTYPE svg PUBLIC "-//W3C//DTD SVG 20010904//EN"
 "http://www.w3.org/TR/2001/REC-SVG-20010904/DTD/svg10.dtd">
<svg version="1.0" xmlns="http://www.w3.org/2000/svg"
 width="372.000000pt" height="152.000000pt" viewBox="0 0 372.000000 152.000000"
 preserveAspectRatio="xMidYMid meet">
<metadata>
Created by potrace 1.16, written by Peter Selinger 2001-2019
</metadata>
<g transform="translate(0.000000,152.000000) scale(0.100000,-0.100000)"
fill="#000000" stroke="none">
<path d="M70 725 l0 -655 1790 0 1790 0 0 655 0 655 -1790 0 -1790 0 0 -655z
m3504 569 c8 -20 8 -1118 0 -1138 -6 -15 -166 -16 -1714 -16 -1548 0 -1708 1
-1714 16 -8 20 -8 1118 0 1138 6 15 166 16 1714 16 1548 0 1708 -1 1714 -16z"/>
<path d="M2449 1159 c-20 -12 -47 -40 -60 -63 -22 -38 -24 -52 -24 -176 0
-121 2 -139 23 -178 33 -61 72 -82 154 -82 61 0 71 3 102 30 19 17 38 43 43
58 14 41 16 118 3 142 -10 18 -19 21 -68 18 -56 -3 -57 -4 -57 -33 0 -25 4
-30 28 -33 24 -3 27 -7 27 -42 0 -50 -30 -73 -91 -68 -32 2 -47 9 -63 31 -19
26 -21 42 -21 162 0 127 1 135 24 159 32 34 52 39 101 26 32 -9 44 -18 52 -41
8 -25 15 -30 37 -27 24 3 26 7 26 47 0 40 -3 47 -33 64 -21 12 -59 21 -100 24
-56 3 -73 0 -103 -18z"/>
<path d="M2842 1160 c-73 -45 -100 -140 -84 -298 9 -85 15 -111 37 -144 34
-52 82 -72 154 -65 94 10 126 57 143 210 17 161 -13 260 -92 299 -47 24 -117
23 -158 -2z m148 -75 c21 -22 25 -35 28 -119 8 -169 -17 -236 -87 -236 -72 0
-93 36 -99 176 -5 122 7 167 52 195 37 23 71 18 106 -16z"/>
<path d="M3212 1160 c-41 -25 -55 -61 -50 -128 6 -70 29 -98 120 -147 41 -22
82 -46 92 -54 22 -18 20 -63 -3 -92 -15 -19 -28 -24 -65 -23 -50 1 -76 17 -76
45 0 12 -10 21 -27 25 -34 9 -53 -15 -44 -58 9 -46 57 -68 147 -68 114 0 169
49 161 143 -6 66 -31 96 -115 137 -111 55 -141 95 -112 150 22 41 104 32 130
-16 13 -22 24 -29 46 -29 24 0 30 5 32 27 5 40 -14 67 -61 89 -56 25 -133 25
-175 -1z"/>
<path d="M280 1150 c0 -11 7 -23 15 -26 23 -9 22 -404 0 -404 -20 0 -30 -27
-17 -43 8 -9 46 -12 138 -12 l128 1 9 34 c6 24 5 37 -6 47 -16 16 -47 7 -47
-14 0 -11 -13 -13 -57 -11 l-58 3 0 90 0 90 70 5 c68 5 70 6 73 33 l3 27 -69
0 c-79 0 -82 3 -82 75 0 68 6 75 61 75 39 0 51 -4 59 -21 7 -13 19 -19 33 -17
18 2 23 11 25 46 l3 42 -140 0 c-135 0 -141 -1 -141 -20z"/>
<path d="M617 1163 c-14 -14 -6 -34 18 -43 l25 -10 0 -179 c0 -187 -3 -211
-26 -211 -20 0 -29 -27 -14 -45 13 -16 65 -19 119 -9 24 5 31 12 31 29 0 14
-7 25 -20 28 -19 5 -20 14 -20 148 0 85 4 139 9 134 5 -6 32 -75 61 -155 28
-80 58 -155 66 -168 34 -52 47 -27 140 250 14 43 30 75 36 72 5 -3 7 -37 4
-77 -2 -40 -5 -102 -5 -139 -1 -54 -4 -68 -16 -68 -16 0 -21 -45 -6 -54 5 -3
36 -3 70 0 56 6 61 9 61 30 0 15 -6 24 -15 24 -12 0 -15 18 -15 98 -1 53 -3
141 -6 194 l-6 98 26 10 c16 6 26 17 26 30 0 18 -6 20 -64 20 l-64 0 -68 -185
c-38 -102 -72 -185 -75 -185 -4 0 -21 39 -39 88 -17 48 -47 131 -67 185 l-35
97 -62 0 c-35 0 -66 -3 -69 -7z"/>
<path d="M1223 1153 c-4 -11 1 -22 15 -31 21 -14 22 -20 22 -208 0 -192 0
-193 -22 -196 -15 -2 -24 -11 -26 -25 -2 -13 0 -24 5 -24 32 -6 155 -4 164 1
19 12 5 44 -21 50 -23 5 -25 12 -30 68 l-5 62 35 5 c116 18 163 58 174 149 9
71 -14 123 -65 148 -49 25 -237 26 -246 1z m204 -41 c35 -22 43 -117 13 -155
-18 -23 -87 -53 -98 -43 -5 6 -9 179 -4 194 5 13 70 16 89 4z"/>
<path d="M1590 1146 c0 -13 7 -26 15 -30 23 -8 22 -391 -1 -400 -9 -3 -14 -15
-12 -28 3 -21 9 -23 62 -26 32 -2 63 1 68 6 14 14 0 52 -18 52 -11 0 -14 17
-14 75 l0 75 44 0 c68 0 87 -22 95 -107 8 -90 20 -105 80 -101 41 3 46 6 49
29 2 19 -3 28 -21 36 -19 9 -25 21 -30 64 -4 30 -16 66 -26 80 l-20 27 25 17
c75 49 65 198 -17 241 -20 10 -63 14 -154 14 l-125 0 0 -24z m219 -37 c38 -13
51 -35 51 -84 0 -58 -35 -85 -110 -85 l-60 0 0 83 c0 46 3 87 7 90 10 11 77 8
112 -4z"/>
<path d="M2016 1161 c-8 -13 3 -38 20 -45 11 -4 14 -40 14 -197 0 -182 -1
-191 -20 -196 -25 -7 -27 -50 -2 -56 9 -2 71 -4 137 -3 l120 2 3 38 c2 21 -1
43 -6 48 -12 12 -42 -1 -42 -19 0 -11 -13 -13 -57 -11 l-58 3 -3 93 -3 92 70
0 c62 0 70 2 76 21 10 31 -3 38 -75 41 l-65 3 0 70 0 70 53 3 c47 3 54 1 59
-17 3 -14 14 -21 29 -21 18 0 24 7 30 34 3 19 3 39 -1 45 -8 14 -271 15 -279
2z"/>
<path d="M290 546 c0 -8 5 -18 10 -21 6 -4 10 -53 10 -115 0 -91 -3 -111 -16
-118 -28 -15 -6 -32 42 -32 31 0 44 4 44 14 0 8 -7 16 -15 20 -9 3 -15 18 -15
39 0 33 3 35 44 46 52 13 76 41 76 89 0 46 -14 68 -51 81 -48 17 -129 14 -129
-3z"/>
<path d="M560 436 c-23 -69 -48 -130 -56 -136 -28 -24 -16 -40 31 -40 45 0 58
13 35 36 -7 7 -8 19 -1 37 9 22 17 27 45 27 40 0 52 -21 41 -70 -6 -29 -6 -30
34 -30 41 0 53 14 32 35 -5 6 -26 63 -46 129 -19 65 -38 123 -41 127 -17 28
-35 0 -74 -115z"/>
<path d="M760 546 c0 -8 5 -18 10 -21 6 -4 10 -53 10 -115 0 -62 -4 -111 -10
-115 -24 -15 -9 -35 24 -35 34 0 61 20 38 28 -7 2 -12 23 -12 48 0 39 3 44 23
44 37 0 51 -16 56 -67 l6 -48 83 -3 c66 -2 82 1 82 12 0 8 -4 17 -9 21 -6 3
-6 17 1 36 9 27 14 30 46 27 29 -2 37 -8 43 -30 4 -16 3 -30 -2 -34 -5 -3 -9
-12 -9 -20 0 -10 12 -14 38 -14 21 0 41 2 44 5 3 3 -2 21 -11 39 -10 18 -32
83 -51 144 -45 150 -54 149 -109 -15 -24 -71 -47 -132 -51 -136 -16 -18 -49 4
-55 36 -4 18 -12 38 -18 45 -7 9 -4 19 12 35 30 33 28 90 -4 122 -21 22 -33
25 -100 25 -59 0 -75 -3 -75 -14z"/>
<path d="M1358 550 c-23 -14 -32 -65 -18 -99 6 -15 29 -39 51 -52 79 -48 85
-54 71 -83 -15 -33 -65 -37 -82 -6 -14 26 -50 27 -50 2 0 -51 98 -75 153 -39
22 14 27 25 27 61 0 48 -11 62 -77 95 -46 23 -66 50 -57 75 13 34 74 28 88 -9
3 -8 12 -15 21 -15 23 0 18 46 -7 64 -25 18 -94 21 -120 6z"/>
<path d="M1636 548 c-23 -78 -82 -236 -92 -249 -25 -28 -16 -39 31 -39 32 0
45 4 45 14 0 8 -5 16 -11 18 -9 3 -9 12 -2 34 8 24 16 30 45 32 42 4 54 -17
43 -68 -6 -29 -6 -30 34 -30 42 0 49 8 30 38 -5 9 -27 71 -48 137 -26 86 -42
121 -54 123 -9 2 -19 -2 -21 -10z"/>
<path d="M1806 551 c-3 -5 1 -14 9 -21 22 -18 22 -228 0 -236 -8 -4 -15 -12
-15 -20 0 -11 18 -14 75 -14 103 0 122 19 115 115 -1 17 -6 35 -12 42 -6 8 -6
19 1 32 17 32 13 60 -14 86 -21 21 -33 25 -89 25 -36 0 -67 -4 -70 -9z"/>
<path d="M2127 553 c-3 -5 -21 -57 -41 -118 -21 -60 -44 -120 -52 -132 -22
-35 -17 -43 25 -43 41 0 63 16 41 30 -8 5 -10 18 -5 39 6 28 10 31 45 31 35 0
39 -3 45 -30 4 -18 2 -36 -4 -44 -15 -18 -3 -26 41 -26 26 0 38 4 38 14 0 8
-4 17 -9 21 -6 3 -28 64 -51 135 -27 86 -45 130 -55 130 -7 0 -16 -3 -18 -7z"/>
<path d="M2277 553 c-4 -3 -7 -15 -7 -25 0 -20 20 -24 37 -7 7 7 19 9 27 6 13
-5 16 -26 16 -116 0 -62 -4 -112 -10 -116 -5 -3 -10 -13 -10 -21 0 -10 12 -14
39 -14 43 0 63 17 37 32 -23 13 -24 226 -1 235 9 3 24 -2 35 -12 18 -16 20
-16 26 -1 15 38 -1 46 -94 46 -49 0 -92 -3 -95 -7z"/>
<path d="M2494 549 c-3 -6 -1 -15 6 -19 9 -5 11 -42 9 -139 l-4 -131 31 0 c36
0 48 9 34 25 -14 16 -15 238 -1 243 6 2 11 10 11 18 0 17 -75 20 -86 3z"/>
<path d="M2643 552 c-23 -15 -34 -63 -23 -98 9 -26 26 -42 68 -67 31 -18 58
-41 60 -51 9 -45 -64 -64 -92 -25 -9 13 -21 19 -30 16 -37 -14 -5 -60 50 -71
42 -9 101 16 113 47 20 51 -8 97 -75 126 -54 24 -72 55 -48 82 23 25 40 24 68
-6 13 -14 28 -25 35 -25 20 0 12 48 -11 64 -23 17 -94 21 -115 8z"/>
<path d="M2813 544 c-9 -25 14 -41 37 -26 11 6 24 12 30 12 13 0 13 -227 0
-235 -5 -3 -10 -13 -10 -21 0 -10 12 -14 45 -14 32 0 45 4 45 14 0 8 -4 16
-10 18 -5 2 -13 54 -16 115 -6 100 -5 113 10 119 9 4 25 -1 35 -10 21 -19 31
-12 31 21 0 22 -2 23 -95 23 -78 0 -97 -3 -102 -16z"/>
<path d="M3080 433 c-23 -71 -49 -133 -57 -140 -23 -18 -6 -33 37 -33 43 0 57
12 36 29 -11 10 -12 19 -4 42 9 27 14 30 46 27 30 -3 37 -8 44 -33 4 -18 4
-31 -2 -33 -6 -2 -10 -10 -10 -18 0 -10 12 -14 38 -14 21 0 41 2 44 5 3 3 -2
21 -11 39 -10 18 -32 83 -51 144 -45 151 -54 149 -110 -15z"/>
<path d="M3297 542 c-10 -11 -17 -35 -17 -59 0 -34 6 -46 33 -70 18 -16 47
-35 65 -42 22 -9 32 -20 32 -35 0 -47 -54 -62 -89 -25 -21 23 -51 20 -51 -4 0
-29 39 -51 92 -51 43 0 54 4 74 28 45 52 21 105 -66 149 -34 17 -46 28 -48 49
-6 49 64 60 82 13 7 -20 32 -19 40 1 3 9 -4 25 -19 40 -31 31 -103 34 -128 6z"/>
</g>
</svg>
