<svg width="274" height="40" viewBox="0 0 274 40" fill="none" xmlns="http://www.w3.org/2000/svg">
<g id="logo">
<path id="empregos para sabatistas" d="M7.25594 27.24C6.25594 27.24 5.34927 27 4.53594 26.52C3.73594 26.0267 3.1026 25.3533 2.63594 24.5C2.16927 23.6467 1.93594 22.68 1.93594 21.6C1.93594 20.52 2.1626 19.5667 2.61594 18.74C3.06927 17.9 3.6826 17.24 4.45594 16.76C5.2426 16.28 6.1226 16.04 7.09594 16.04C7.86927 16.04 8.55594 16.1867 9.15594 16.48C9.76927 16.76 10.2893 17.1467 10.7159 17.64C11.1426 18.12 11.4693 18.6667 11.6959 19.28C11.9226 19.88 12.0359 20.5 12.0359 21.14C12.0359 21.2733 12.0293 21.4267 12.0159 21.6C12.0026 21.76 11.9826 21.9267 11.9559 22.1H2.89594V20.7H11.0959L10.3759 21.3C10.4959 20.5667 10.4093 19.9133 10.1159 19.34C9.83594 18.7533 9.42927 18.2933 8.89594 17.96C8.3626 17.6133 7.7626 17.44 7.09594 17.44C6.42927 17.44 5.80927 17.6133 5.23594 17.96C4.67594 18.3067 4.23594 18.7933 3.91594 19.42C3.59594 20.0333 3.46927 20.7667 3.53594 21.62C3.46927 22.4733 3.6026 23.22 3.93594 23.86C4.2826 24.4867 4.74927 24.9733 5.33594 25.32C5.93594 25.6667 6.57594 25.84 7.25594 25.84C8.0426 25.84 8.7026 25.6533 9.23594 25.28C9.76927 24.9067 10.2026 24.44 10.5359 23.88L11.8159 24.56C11.6026 25.04 11.2759 25.4867 10.8359 25.9C10.3959 26.3 9.86927 26.6267 9.25594 26.88C8.65594 27.12 7.98927 27.24 7.25594 27.24ZM14.6806 27V16.28H16.1806V18.32L15.9406 18.02C16.234 17.3933 16.6673 16.9067 17.2406 16.56C17.8273 16.2133 18.4673 16.04 19.1606 16.04C19.9873 16.04 20.734 16.2733 21.4006 16.74C22.0673 17.2067 22.5406 17.8133 22.8206 18.56L22.4006 18.58C22.6673 17.7533 23.1273 17.1267 23.7806 16.7C24.4473 16.26 25.1806 16.04 25.9806 16.04C26.7006 16.04 27.3606 16.2133 27.9606 16.56C28.574 16.9067 29.0606 17.3867 29.4206 18C29.794 18.6 29.9806 19.28 29.9806 20.04V27H28.4806V20.62C28.4806 19.9667 28.3606 19.4133 28.1206 18.96C27.894 18.5067 27.5806 18.16 27.1806 17.92C26.7806 17.6667 26.3206 17.54 25.8006 17.54C25.294 17.54 24.834 17.6667 24.4206 17.92C24.0073 18.16 23.6806 18.5133 23.4406 18.98C23.2006 19.4333 23.0806 19.98 23.0806 20.62V27H21.5806V20.62C21.5806 19.9667 21.4606 19.4133 21.2206 18.96C20.994 18.5067 20.6806 18.16 20.2806 17.92C19.8806 17.6667 19.4206 17.54 18.9006 17.54C18.3806 17.54 17.914 17.6667 17.5006 17.92C17.1006 18.16 16.7806 18.5133 16.5406 18.98C16.3006 19.4333 16.1806 19.98 16.1806 20.62V27H14.6806ZM32.8447 31V16.28H34.3447V18.68L34.1047 18.26C34.5314 17.58 35.098 17.04 35.8047 16.64C36.5247 16.24 37.3447 16.04 38.2647 16.04C39.278 16.04 40.178 16.2867 40.9647 16.78C41.7647 17.26 42.3914 17.92 42.8447 18.76C43.3114 19.6 43.5447 20.56 43.5447 21.64C43.5447 22.7067 43.3114 23.6667 42.8447 24.52C42.3914 25.36 41.7647 26.0267 40.9647 26.52C40.178 27 39.278 27.24 38.2647 27.24C37.3447 27.24 36.5114 27.0333 35.7647 26.62C35.0314 26.1933 34.478 25.5933 34.1047 24.82L34.3447 24.6V31H32.8447ZM38.1847 25.74C38.9047 25.74 39.5447 25.56 40.1047 25.2C40.678 24.84 41.1247 24.3533 41.4447 23.74C41.778 23.1133 41.9447 22.4133 41.9447 21.64C41.9447 20.8533 41.778 20.1533 41.4447 19.54C41.1247 18.9267 40.678 18.44 40.1047 18.08C39.5447 17.72 38.9047 17.54 38.1847 17.54C37.4647 17.54 36.8114 17.72 36.2247 18.08C35.6514 18.44 35.1914 18.9333 34.8447 19.56C34.5114 20.1733 34.3447 20.8667 34.3447 21.64C34.3447 22.4133 34.5114 23.1133 34.8447 23.74C35.1914 24.3533 35.6514 24.84 36.2247 25.2C36.8114 25.56 37.4647 25.74 38.1847 25.74ZM46.1845 27V16.28H47.6845V18.04L47.4845 17.78C47.7379 17.2733 48.1179 16.8733 48.6245 16.58C49.1445 16.2867 49.7712 16.14 50.5045 16.14H51.1845V17.64H50.2445C49.4712 17.64 48.8512 17.88 48.3845 18.36C47.9179 18.84 47.6845 19.52 47.6845 20.4V27H46.1845ZM57.8223 27.24C56.8223 27.24 55.9157 27 55.1023 26.52C54.3023 26.0267 53.669 25.3533 53.2023 24.5C52.7357 23.6467 52.5023 22.68 52.5023 21.6C52.5023 20.52 52.729 19.5667 53.1823 18.74C53.6357 17.9 54.249 17.24 55.0223 16.76C55.809 16.28 56.689 16.04 57.6623 16.04C58.4357 16.04 59.1223 16.1867 59.7223 16.48C60.3357 16.76 60.8557 17.1467 61.2823 17.64C61.709 18.12 62.0357 18.6667 62.2623 19.28C62.489 19.88 62.6023 20.5 62.6023 21.14C62.6023 21.2733 62.5957 21.4267 62.5823 21.6C62.569 21.76 62.549 21.9267 62.5223 22.1H53.4623V20.7H61.6623L60.9423 21.3C61.0623 20.5667 60.9757 19.9133 60.6823 19.34C60.4023 18.7533 59.9957 18.2933 59.4623 17.96C58.929 17.6133 58.329 17.44 57.6623 17.44C56.9957 17.44 56.3757 17.6133 55.8023 17.96C55.2423 18.3067 54.8023 18.7933 54.4823 19.42C54.1623 20.0333 54.0357 20.7667 54.1023 21.62C54.0357 22.4733 54.169 23.22 54.5023 23.86C54.849 24.4867 55.3157 24.9733 55.9023 25.32C56.5023 25.6667 57.1423 25.84 57.8223 25.84C58.609 25.84 59.269 25.6533 59.8023 25.28C60.3357 24.9067 60.769 24.44 61.1023 23.88L62.3823 24.56C62.169 25.04 61.8423 25.4867 61.4023 25.9C60.9623 26.3 60.4357 26.6267 59.8223 26.88C59.2223 27.12 58.5557 27.24 57.8223 27.24ZM70.327 31.4C69.5937 31.4 68.9137 31.2867 68.287 31.06C67.6737 30.8333 67.1404 30.52 66.687 30.12C66.247 29.7333 65.907 29.28 65.667 28.76L67.047 28.02C67.2604 28.5267 67.6404 28.9667 68.187 29.34C68.7337 29.7133 69.4337 29.9 70.287 29.9C70.9404 29.9 71.5404 29.7733 72.087 29.52C72.6337 29.2667 73.0737 28.8933 73.407 28.4C73.7404 27.9067 73.907 27.3 73.907 26.58V24.2L74.147 24.42C73.7737 25.1933 73.2204 25.7933 72.487 26.22C71.7537 26.6333 70.9537 26.84 70.087 26.84C69.087 26.84 68.187 26.6 67.387 26.12C66.587 25.64 65.9537 24.9933 65.487 24.18C65.0337 23.3533 64.807 22.44 64.807 21.44C64.807 20.4267 65.0337 19.5133 65.487 18.7C65.9537 17.8867 66.5804 17.24 67.367 16.76C68.167 16.28 69.0737 16.04 70.087 16.04C70.9537 16.04 71.7404 16.24 72.447 16.64C73.167 17.04 73.7337 17.58 74.147 18.26L73.907 18.68V16.28H75.407V26.58C75.407 27.5 75.187 28.32 74.747 29.04C74.3204 29.7733 73.7204 30.3467 72.947 30.76C72.187 31.1867 71.3137 31.4 70.327 31.4ZM70.167 25.34C70.8604 25.34 71.487 25.1667 72.047 24.82C72.607 24.46 73.0537 23.9867 73.387 23.4C73.7337 22.8 73.907 22.1467 73.907 21.44C73.907 20.7333 73.7337 20.0867 73.387 19.5C73.0537 18.9 72.607 18.4267 72.047 18.08C71.487 17.72 70.8604 17.54 70.167 17.54C69.4604 17.54 68.8204 17.72 68.247 18.08C67.6737 18.4267 67.2204 18.8933 66.887 19.48C66.567 20.0667 66.407 20.72 66.407 21.44C66.407 22.1467 66.567 22.8 66.887 23.4C67.2204 23.9867 67.667 24.46 68.227 24.82C68.8004 25.1667 69.447 25.34 70.167 25.34ZM83.5092 27.24C82.4959 27.24 81.5759 27 80.7492 26.52C79.9226 26.0267 79.2626 25.36 78.7692 24.52C78.2892 23.6667 78.0492 22.7 78.0492 21.62C78.0492 20.5533 78.2892 19.6 78.7692 18.76C79.2492 17.92 79.8959 17.26 80.7092 16.78C81.5359 16.2867 82.4692 16.04 83.5092 16.04C84.5492 16.04 85.4759 16.28 86.2892 16.76C87.1159 17.24 87.7626 17.9 88.2292 18.74C88.7092 19.58 88.9492 20.54 88.9492 21.62C88.9492 22.7133 88.7026 23.6867 88.2092 24.54C87.7159 25.38 87.0559 26.04 86.2292 26.52C85.4159 27 84.5092 27.24 83.5092 27.24ZM83.5092 25.74C84.2292 25.74 84.8759 25.56 85.4492 25.2C86.0359 24.84 86.4959 24.3467 86.8292 23.72C87.1759 23.0933 87.3492 22.3933 87.3492 21.62C87.3492 20.8467 87.1759 20.1533 86.8292 19.54C86.4959 18.9267 86.0359 18.44 85.4492 18.08C84.8759 17.72 84.2292 17.54 83.5092 17.54C82.7892 17.54 82.1359 17.72 81.5492 18.08C80.9759 18.44 80.5159 18.9267 80.1692 19.54C79.8226 20.1533 79.6492 20.8467 79.6492 21.62C79.6492 22.3933 79.8226 23.0933 80.1692 23.72C80.5159 24.3467 80.9759 24.84 81.5492 25.2C82.1359 25.56 82.7892 25.74 83.5092 25.74ZM95.3147 27.24C94.288 27.24 93.388 26.98 92.6147 26.46C91.8414 25.94 91.2814 25.2333 90.9347 24.34L92.1947 23.74C92.5014 24.3933 92.928 24.9133 93.4747 25.3C94.0347 25.6867 94.648 25.88 95.3147 25.88C95.9547 25.88 96.4947 25.7267 96.9347 25.42C97.3747 25.1 97.5947 24.6867 97.5947 24.18C97.5947 23.8067 97.488 23.5133 97.2747 23.3C97.0614 23.0733 96.8147 22.9 96.5347 22.78C96.2547 22.66 96.008 22.5733 95.7947 22.52L94.2547 22.08C93.268 21.8 92.5547 21.4067 92.1147 20.9C91.6747 20.3933 91.4547 19.8067 91.4547 19.14C91.4547 18.5133 91.6147 17.9667 91.9347 17.5C92.2547 17.0333 92.688 16.6733 93.2347 16.42C93.7814 16.1667 94.388 16.04 95.0547 16.04C95.9614 16.04 96.7814 16.28 97.5147 16.76C98.2614 17.2267 98.788 17.88 99.0947 18.72L97.8147 19.32C97.548 18.72 97.1614 18.2533 96.6547 17.92C96.1614 17.5733 95.608 17.4 94.9947 17.4C94.3947 17.4 93.9147 17.5533 93.5547 17.86C93.1947 18.1667 93.0147 18.5533 93.0147 19.02C93.0147 19.38 93.108 19.6667 93.2947 19.88C93.4814 20.0933 93.6947 20.2533 93.9347 20.36C94.188 20.4667 94.408 20.5467 94.5947 20.6L96.3747 21.12C97.2414 21.3733 97.9147 21.7667 98.3947 22.3C98.888 22.8333 99.1347 23.46 99.1347 24.18C99.1347 24.7667 98.968 25.2933 98.6347 25.76C98.3147 26.2267 97.868 26.5933 97.2947 26.86C96.7214 27.1133 96.0614 27.24 95.3147 27.24ZM105.169 31V16.28H106.669V18.68L106.429 18.26C106.856 17.58 107.422 17.04 108.129 16.64C108.849 16.24 109.669 16.04 110.589 16.04C111.602 16.04 112.502 16.2867 113.289 16.78C114.089 17.26 114.716 17.92 115.169 18.76C115.636 19.6 115.869 20.56 115.869 21.64C115.869 22.7067 115.636 23.6667 115.169 24.52C114.716 25.36 114.089 26.0267 113.289 26.52C112.502 27 111.602 27.24 110.589 27.24C109.669 27.24 108.836 27.0333 108.089 26.62C107.356 26.1933 106.802 25.5933 106.429 24.82L106.669 24.6V31H105.169ZM110.509 25.74C111.229 25.74 111.869 25.56 112.429 25.2C113.002 24.84 113.449 24.3533 113.769 23.74C114.102 23.1133 114.269 22.4133 114.269 21.64C114.269 20.8533 114.102 20.1533 113.769 19.54C113.449 18.9267 113.002 18.44 112.429 18.08C111.869 17.72 111.229 17.54 110.509 17.54C109.789 17.54 109.136 17.72 108.549 18.08C107.976 18.44 107.516 18.9333 107.169 19.56C106.836 20.1733 106.669 20.8667 106.669 21.64C106.669 22.4133 106.836 23.1133 107.169 23.74C107.516 24.3533 107.976 24.84 108.549 25.2C109.136 25.56 109.789 25.74 110.509 25.74ZM121.609 27.24C120.929 27.24 120.322 27.1133 119.789 26.86C119.255 26.5933 118.835 26.2333 118.529 25.78C118.222 25.3267 118.069 24.8067 118.069 24.22C118.069 23.66 118.189 23.1533 118.429 22.7C118.669 22.2333 119.042 21.84 119.549 21.52C120.055 21.2 120.702 20.9733 121.489 20.84L125.689 20.14V21.5L121.849 22.14C121.075 22.2733 120.515 22.52 120.169 22.88C119.835 23.24 119.669 23.6667 119.669 24.16C119.669 24.64 119.855 25.0467 120.229 25.38C120.615 25.7133 121.109 25.88 121.709 25.88C122.442 25.88 123.082 25.7267 123.629 25.42C124.175 25.1 124.602 24.6733 124.909 24.14C125.215 23.6067 125.369 23.0133 125.369 22.36V19.64C125.369 19 125.135 18.48 124.669 18.08C124.202 17.68 123.595 17.48 122.849 17.48C122.195 17.48 121.622 17.6467 121.129 17.98C120.635 18.3 120.269 18.72 120.029 19.24L118.669 18.5C118.869 18.0467 119.182 17.6333 119.609 17.26C120.049 16.8867 120.549 16.5933 121.109 16.38C121.669 16.1533 122.249 16.04 122.849 16.04C123.635 16.04 124.329 16.1933 124.929 16.5C125.542 16.8067 126.015 17.2333 126.349 17.78C126.695 18.3133 126.869 18.9333 126.869 19.64V27H125.369V24.86L125.589 25.08C125.402 25.48 125.109 25.8467 124.709 26.18C124.322 26.5 123.862 26.76 123.329 26.96C122.809 27.1467 122.235 27.24 121.609 27.24ZM129.954 27V16.28H131.454V18.04L131.254 17.78C131.507 17.2733 131.887 16.8733 132.394 16.58C132.914 16.2867 133.541 16.14 134.274 16.14H134.954V17.64H134.014C133.241 17.64 132.621 17.88 132.154 18.36C131.687 18.84 131.454 19.52 131.454 20.4V27H129.954ZM139.812 27.24C139.132 27.24 138.525 27.1133 137.992 26.86C137.459 26.5933 137.039 26.2333 136.732 25.78C136.425 25.3267 136.272 24.8067 136.272 24.22C136.272 23.66 136.392 23.1533 136.632 22.7C136.872 22.2333 137.245 21.84 137.752 21.52C138.259 21.2 138.905 20.9733 139.692 20.84L143.892 20.14V21.5L140.052 22.14C139.279 22.2733 138.719 22.52 138.372 22.88C138.039 23.24 137.872 23.6667 137.872 24.16C137.872 24.64 138.059 25.0467 138.432 25.38C138.819 25.7133 139.312 25.88 139.912 25.88C140.645 25.88 141.285 25.7267 141.832 25.42C142.379 25.1 142.805 24.6733 143.112 24.14C143.419 23.6067 143.572 23.0133 143.572 22.36V19.64C143.572 19 143.339 18.48 142.872 18.08C142.405 17.68 141.799 17.48 141.052 17.48C140.399 17.48 139.825 17.6467 139.332 17.98C138.839 18.3 138.472 18.72 138.232 19.24L136.872 18.5C137.072 18.0467 137.385 17.6333 137.812 17.26C138.252 16.8867 138.752 16.5933 139.312 16.38C139.872 16.1533 140.452 16.04 141.052 16.04C141.839 16.04 142.532 16.1933 143.132 16.5C143.745 16.8067 144.219 17.2333 144.552 17.78C144.899 18.3133 145.072 18.9333 145.072 19.64V27H143.572V24.86L143.792 25.08C143.605 25.48 143.312 25.8467 142.912 26.18C142.525 26.5 142.065 26.76 141.532 26.96C141.012 27.1467 140.439 27.24 139.812 27.24ZM168.969 27.24C167.809 27.24 166.796 26.9667 165.929 26.42C165.076 25.86 164.489 25.1067 164.169 24.16L166.129 23.22C166.409 23.8333 166.796 24.3133 167.289 24.66C167.796 25.0067 168.356 25.18 168.969 25.18C169.449 25.18 169.829 25.0733 170.109 24.86C170.389 24.6467 170.529 24.3667 170.529 24.02C170.529 23.8067 170.469 23.6333 170.349 23.5C170.243 23.3533 170.089 23.2333 169.889 23.14C169.703 23.0333 169.496 22.9467 169.269 22.88L167.489 22.38C166.569 22.1133 165.869 21.7067 165.389 21.16C164.923 20.6133 164.689 19.9667 164.689 19.22C164.689 18.5533 164.856 17.9733 165.189 17.48C165.536 16.9733 166.009 16.58 166.609 16.3C167.223 16.02 167.923 15.88 168.709 15.88C169.736 15.88 170.643 16.1267 171.429 16.62C172.216 17.1133 172.776 17.8067 173.109 18.7L171.109 19.64C170.923 19.1467 170.609 18.7533 170.169 18.46C169.729 18.1667 169.236 18.02 168.689 18.02C168.249 18.02 167.903 18.12 167.649 18.32C167.396 18.52 167.269 18.78 167.269 19.1C167.269 19.3 167.323 19.4733 167.429 19.62C167.536 19.7667 167.683 19.8867 167.869 19.98C168.069 20.0733 168.296 20.16 168.549 20.24L170.289 20.76C171.183 21.0267 171.869 21.4267 172.349 21.96C172.843 22.4933 173.089 23.1467 173.089 23.92C173.089 24.5733 172.916 25.1533 172.569 25.66C172.223 26.1533 171.743 26.54 171.129 26.82C170.516 27.1 169.796 27.24 168.969 27.24ZM178.403 27.24C177.643 27.24 176.983 27.1133 176.423 26.86C175.863 26.6067 175.429 26.2467 175.123 25.78C174.816 25.3 174.663 24.7467 174.663 24.12C174.663 23.52 174.796 22.9867 175.063 22.52C175.329 22.04 175.743 21.64 176.303 21.32C176.863 21 177.569 20.7733 178.423 20.64L181.983 20.06V22.06L178.923 22.58C178.403 22.6733 178.016 22.84 177.763 23.08C177.509 23.32 177.383 23.6333 177.383 24.02C177.383 24.3933 177.523 24.6933 177.803 24.92C178.096 25.1333 178.456 25.24 178.883 25.24C179.429 25.24 179.909 25.1267 180.323 24.9C180.749 24.66 181.076 24.3333 181.303 23.92C181.543 23.5067 181.663 23.0533 181.663 22.56V19.76C181.663 19.2933 181.476 18.9067 181.103 18.6C180.743 18.28 180.263 18.12 179.663 18.12C179.103 18.12 178.603 18.2733 178.163 18.58C177.736 18.8733 177.423 19.2667 177.223 19.76L175.083 18.72C175.296 18.1467 175.629 17.6533 176.083 17.24C176.549 16.8133 177.096 16.48 177.723 16.24C178.349 16 179.029 15.88 179.763 15.88C180.656 15.88 181.443 16.0467 182.123 16.38C182.803 16.7 183.329 17.1533 183.703 17.74C184.089 18.3133 184.283 18.9867 184.283 19.76V27H181.803V25.14L182.363 25.1C182.083 25.5667 181.749 25.96 181.363 26.28C180.976 26.5867 180.536 26.8267 180.043 27C179.549 27.16 179.003 27.24 178.403 27.24ZM192.644 27.24C191.858 27.24 191.131 27.0867 190.464 26.78C189.811 26.46 189.291 26.0067 188.904 25.42L189.164 24.9V27H186.704V11.86H189.324V18.28L188.924 17.74C189.298 17.1533 189.804 16.7 190.444 16.38C191.084 16.0467 191.824 15.88 192.664 15.88C193.691 15.88 194.618 16.1333 195.444 16.64C196.271 17.1467 196.924 17.8267 197.404 18.68C197.898 19.5333 198.144 20.4933 198.144 21.56C198.144 22.6133 197.904 23.5733 197.424 24.44C196.944 25.3067 196.291 25.9933 195.464 26.5C194.638 26.9933 193.698 27.24 192.644 27.24ZM192.344 24.84C192.944 24.84 193.478 24.7 193.944 24.42C194.411 24.14 194.771 23.7533 195.024 23.26C195.291 22.7667 195.424 22.2 195.424 21.56C195.424 20.92 195.291 20.36 195.024 19.88C194.771 19.3867 194.411 19 193.944 18.72C193.478 18.4267 192.944 18.28 192.344 18.28C191.771 18.28 191.251 18.42 190.784 18.7C190.331 18.98 189.971 19.3733 189.704 19.88C189.451 20.3733 189.324 20.9333 189.324 21.56C189.324 22.2 189.451 22.7667 189.704 23.26C189.971 23.7533 190.331 24.14 190.784 24.42C191.251 24.7 191.771 24.84 192.344 24.84ZM203.442 27.24C202.682 27.24 202.022 27.1133 201.462 26.86C200.902 26.6067 200.469 26.2467 200.162 25.78C199.855 25.3 199.702 24.7467 199.702 24.12C199.702 23.52 199.835 22.9867 200.102 22.52C200.369 22.04 200.782 21.64 201.342 21.32C201.902 21 202.609 20.7733 203.462 20.64L207.022 20.06V22.06L203.962 22.58C203.442 22.6733 203.055 22.84 202.802 23.08C202.549 23.32 202.422 23.6333 202.422 24.02C202.422 24.3933 202.562 24.6933 202.842 24.92C203.135 25.1333 203.495 25.24 203.922 25.24C204.469 25.24 204.949 25.1267 205.362 24.9C205.789 24.66 206.115 24.3333 206.342 23.92C206.582 23.5067 206.702 23.0533 206.702 22.56V19.76C206.702 19.2933 206.515 18.9067 206.142 18.6C205.782 18.28 205.302 18.12 204.702 18.12C204.142 18.12 203.642 18.2733 203.202 18.58C202.775 18.8733 202.462 19.2667 202.262 19.76L200.122 18.72C200.335 18.1467 200.669 17.6533 201.122 17.24C201.589 16.8133 202.135 16.48 202.762 16.24C203.389 16 204.069 15.88 204.802 15.88C205.695 15.88 206.482 16.0467 207.162 16.38C207.842 16.7 208.369 17.1533 208.742 17.74C209.129 18.3133 209.322 18.9867 209.322 19.76V27H206.842V25.14L207.402 25.1C207.122 25.5667 206.789 25.96 206.402 26.28C206.015 26.5867 205.575 26.8267 205.082 27C204.589 27.16 204.042 27.24 203.442 27.24ZM216.508 27.12C215.281 27.12 214.328 26.7867 213.648 26.12C212.981 25.44 212.648 24.4867 212.648 23.26V18.46H210.768V16.12H210.968C211.501 16.12 211.915 15.98 212.208 15.7C212.501 15.42 212.648 15.0133 212.648 14.48V13.64H215.268V16.12H217.768V18.46H215.268V23.12C215.268 23.48 215.328 23.7867 215.448 24.04C215.581 24.2933 215.781 24.4867 216.048 24.62C216.328 24.7533 216.681 24.82 217.108 24.82C217.201 24.82 217.308 24.8133 217.428 24.8C217.561 24.7867 217.688 24.7733 217.808 24.76V27C217.621 27.0267 217.408 27.0533 217.168 27.08C216.928 27.1067 216.708 27.12 216.508 27.12ZM219.81 27V16.12H222.43V27H219.81ZM219.81 14.9V12.1H222.43V14.9H219.81ZM228.989 27.24C227.829 27.24 226.816 26.9667 225.949 26.42C225.096 25.86 224.509 25.1067 224.189 24.16L226.149 23.22C226.429 23.8333 226.816 24.3133 227.309 24.66C227.816 25.0067 228.376 25.18 228.989 25.18C229.469 25.18 229.849 25.0733 230.129 24.86C230.409 24.6467 230.549 24.3667 230.549 24.02C230.549 23.8067 230.489 23.6333 230.369 23.5C230.262 23.3533 230.109 23.2333 229.909 23.14C229.722 23.0333 229.516 22.9467 229.289 22.88L227.509 22.38C226.589 22.1133 225.889 21.7067 225.409 21.16C224.942 20.6133 224.709 19.9667 224.709 19.22C224.709 18.5533 224.876 17.9733 225.209 17.48C225.556 16.9733 226.029 16.58 226.629 16.3C227.242 16.02 227.942 15.88 228.729 15.88C229.756 15.88 230.662 16.1267 231.449 16.62C232.236 17.1133 232.796 17.8067 233.129 18.7L231.129 19.64C230.942 19.1467 230.629 18.7533 230.189 18.46C229.749 18.1667 229.256 18.02 228.709 18.02C228.269 18.02 227.922 18.12 227.669 18.32C227.416 18.52 227.289 18.78 227.289 19.1C227.289 19.3 227.342 19.4733 227.449 19.62C227.556 19.7667 227.702 19.8867 227.889 19.98C228.089 20.0733 228.316 20.16 228.569 20.24L230.309 20.76C231.202 21.0267 231.889 21.4267 232.369 21.96C232.862 22.4933 233.109 23.1467 233.109 23.92C233.109 24.5733 232.936 25.1533 232.589 25.66C232.242 26.1533 231.762 26.54 231.149 26.82C230.536 27.1 229.816 27.24 228.989 27.24ZM240.082 27.12C238.856 27.12 237.902 26.7867 237.222 26.12C236.556 25.44 236.222 24.4867 236.222 23.26V18.46H234.342V16.12H234.542C235.076 16.12 235.489 15.98 235.782 15.7C236.076 15.42 236.222 15.0133 236.222 14.48V13.64H238.842V16.12H241.342V18.46H238.842V23.12C238.842 23.48 238.902 23.7867 239.022 24.04C239.156 24.2933 239.356 24.4867 239.622 24.62C239.902 24.7533 240.256 24.82 240.682 24.82C240.776 24.82 240.882 24.8133 241.002 24.8C241.136 24.7867 241.262 24.7733 241.382 24.76V27C241.196 27.0267 240.982 27.0533 240.742 27.08C240.502 27.1067 240.282 27.12 240.082 27.12ZM246.645 27.24C245.885 27.24 245.225 27.1133 244.665 26.86C244.105 26.6067 243.672 26.2467 243.365 25.78C243.058 25.3 242.905 24.7467 242.905 24.12C242.905 23.52 243.038 22.9867 243.305 22.52C243.572 22.04 243.985 21.64 244.545 21.32C245.105 21 245.812 20.7733 246.665 20.64L250.225 20.06V22.06L247.165 22.58C246.645 22.6733 246.258 22.84 246.005 23.08C245.752 23.32 245.625 23.6333 245.625 24.02C245.625 24.3933 245.765 24.6933 246.045 24.92C246.338 25.1333 246.698 25.24 247.125 25.24C247.672 25.24 248.152 25.1267 248.565 24.9C248.992 24.66 249.318 24.3333 249.545 23.92C249.785 23.5067 249.905 23.0533 249.905 22.56V19.76C249.905 19.2933 249.718 18.9067 249.345 18.6C248.985 18.28 248.505 18.12 247.905 18.12C247.345 18.12 246.845 18.2733 246.405 18.58C245.978 18.8733 245.665 19.2667 245.465 19.76L243.325 18.72C243.538 18.1467 243.872 17.6533 244.325 17.24C244.792 16.8133 245.338 16.48 245.965 16.24C246.592 16 247.272 15.88 248.005 15.88C248.898 15.88 249.685 16.0467 250.365 16.38C251.045 16.7 251.572 17.1533 251.945 17.74C252.332 18.3133 252.525 18.9867 252.525 19.76V27H250.045V25.14L250.605 25.1C250.325 25.5667 249.992 25.96 249.605 26.28C249.218 26.5867 248.778 26.8267 248.285 27C247.792 27.16 247.245 27.24 246.645 27.24ZM259.087 27.24C257.927 27.24 256.913 26.9667 256.047 26.42C255.193 25.86 254.607 25.1067 254.287 24.16L256.247 23.22C256.527 23.8333 256.913 24.3133 257.407 24.66C257.913 25.0067 258.473 25.18 259.087 25.18C259.567 25.18 259.947 25.0733 260.227 24.86C260.507 24.6467 260.647 24.3667 260.647 24.02C260.647 23.8067 260.587 23.6333 260.467 23.5C260.36 23.3533 260.207 23.2333 260.007 23.14C259.82 23.0333 259.613 22.9467 259.387 22.88L257.607 22.38C256.687 22.1133 255.987 21.7067 255.507 21.16C255.04 20.6133 254.807 19.9667 254.807 19.22C254.807 18.5533 254.973 17.9733 255.307 17.48C255.653 16.9733 256.127 16.58 256.727 16.3C257.34 16.02 258.04 15.88 258.827 15.88C259.853 15.88 260.76 16.1267 261.547 16.62C262.333 17.1133 262.893 17.8067 263.227 18.7L261.227 19.64C261.04 19.1467 260.727 18.7533 260.287 18.46C259.847 18.1667 259.353 18.02 258.807 18.02C258.367 18.02 258.02 18.12 257.767 18.32C257.513 18.52 257.387 18.78 257.387 19.1C257.387 19.3 257.44 19.4733 257.547 19.62C257.653 19.7667 257.8 19.8867 257.987 19.98C258.187 20.0733 258.413 20.16 258.667 20.24L260.407 20.76C261.3 21.0267 261.987 21.4267 262.467 21.96C262.96 22.4933 263.207 23.1467 263.207 23.92C263.207 24.5733 263.033 25.1533 262.687 25.66C262.34 26.1533 261.86 26.54 261.247 26.82C260.633 27.1 259.913 27.24 259.087 27.24Z" fill="black"/>
<rect id="Rectangle 1" x="154.5" y="0.5" width="119" height="39" rx="4.5" stroke="black"/>
</g>
</svg>
